<mxfile host="Electron" modified="2023-06-13T13:49:22.447Z" agent="Mozilla/5.0 (Windows NT 10.0; Win64; x64) AppleWebKit/537.36 (KHTML, like Gecko) draw.io/21.1.2 Chrome/106.0.5249.199 Electron/21.4.3 Safari/537.36" etag="cxbkHzNQgdKX0a_mbfXD" version="21.1.2" type="device">
  <diagram name="Strona-1" id="qI7-fnWmIQPrKCJLMAW7">
    <mxGraphModel dx="813" dy="469" grid="1" gridSize="10" guides="1" tooltips="1" connect="1" arrows="1" fold="1" page="1" pageScale="1" pageWidth="827" pageHeight="1169" math="0" shadow="0">
      <root>
        <mxCell id="0" />
        <mxCell id="1" parent="0" />
        <mxCell id="ARMuDOWkX1jHD8Vj0ymX-1" value="" style="ellipse;whiteSpace=wrap;html=1;aspect=fixed;" vertex="1" parent="1">
          <mxGeometry x="80" y="310" width="40" height="40" as="geometry" />
        </mxCell>
        <mxCell id="ARMuDOWkX1jHD8Vj0ymX-3" value="" style="ellipse;whiteSpace=wrap;html=1;aspect=fixed;" vertex="1" parent="1">
          <mxGeometry x="240" y="270" width="40" height="40" as="geometry" />
        </mxCell>
        <mxCell id="ARMuDOWkX1jHD8Vj0ymX-5" value="" style="ellipse;whiteSpace=wrap;html=1;aspect=fixed;" vertex="1" parent="1">
          <mxGeometry x="240" y="440" width="40" height="40" as="geometry" />
        </mxCell>
        <mxCell id="ARMuDOWkX1jHD8Vj0ymX-6" value="" style="ellipse;whiteSpace=wrap;html=1;aspect=fixed;" vertex="1" parent="1">
          <mxGeometry x="80" y="430" width="40" height="40" as="geometry" />
        </mxCell>
        <mxCell id="ARMuDOWkX1jHD8Vj0ymX-7" value="" style="ellipse;whiteSpace=wrap;html=1;aspect=fixed;" vertex="1" parent="1">
          <mxGeometry x="80" y="360" width="40" height="40" as="geometry" />
        </mxCell>
        <mxCell id="ARMuDOWkX1jHD8Vj0ymX-8" value="" style="endArrow=none;dashed=1;html=1;dashPattern=1 3;strokeWidth=2;rounded=0;" edge="1" parent="1">
          <mxGeometry width="50" height="50" relative="1" as="geometry">
            <mxPoint x="100" y="424" as="sourcePoint" />
            <mxPoint x="100" y="405" as="targetPoint" />
          </mxGeometry>
        </mxCell>
        <mxCell id="ARMuDOWkX1jHD8Vj0ymX-9" value="" style="ellipse;whiteSpace=wrap;html=1;aspect=fixed;" vertex="1" parent="1">
          <mxGeometry x="240" y="390" width="40" height="40" as="geometry" />
        </mxCell>
        <mxCell id="ARMuDOWkX1jHD8Vj0ymX-10" value="" style="ellipse;whiteSpace=wrap;html=1;aspect=fixed;" vertex="1" parent="1">
          <mxGeometry x="240" y="320" width="40" height="40" as="geometry" />
        </mxCell>
        <mxCell id="ARMuDOWkX1jHD8Vj0ymX-11" value="" style="endArrow=none;dashed=1;html=1;dashPattern=1 3;strokeWidth=2;rounded=0;" edge="1" parent="1">
          <mxGeometry width="50" height="50" relative="1" as="geometry">
            <mxPoint x="260" y="384" as="sourcePoint" />
            <mxPoint x="260" y="365" as="targetPoint" />
          </mxGeometry>
        </mxCell>
        <mxCell id="ARMuDOWkX1jHD8Vj0ymX-12" value="" style="ellipse;whiteSpace=wrap;html=1;aspect=fixed;" vertex="1" parent="1">
          <mxGeometry x="240" y="490" width="40" height="40" as="geometry" />
        </mxCell>
        <mxCell id="ARMuDOWkX1jHD8Vj0ymX-14" value="" style="ellipse;whiteSpace=wrap;html=1;aspect=fixed;" vertex="1" parent="1">
          <mxGeometry x="400" y="310" width="40" height="40" as="geometry" />
        </mxCell>
        <mxCell id="ARMuDOWkX1jHD8Vj0ymX-15" value="" style="ellipse;whiteSpace=wrap;html=1;aspect=fixed;" vertex="1" parent="1">
          <mxGeometry x="400" y="430" width="40" height="40" as="geometry" />
        </mxCell>
        <mxCell id="ARMuDOWkX1jHD8Vj0ymX-16" value="" style="ellipse;whiteSpace=wrap;html=1;aspect=fixed;" vertex="1" parent="1">
          <mxGeometry x="400" y="360" width="40" height="40" as="geometry" />
        </mxCell>
        <mxCell id="ARMuDOWkX1jHD8Vj0ymX-17" value="" style="endArrow=none;dashed=1;html=1;dashPattern=1 3;strokeWidth=2;rounded=0;" edge="1" parent="1">
          <mxGeometry width="50" height="50" relative="1" as="geometry">
            <mxPoint x="420" y="424" as="sourcePoint" />
            <mxPoint x="420" y="405" as="targetPoint" />
          </mxGeometry>
        </mxCell>
        <mxCell id="ARMuDOWkX1jHD8Vj0ymX-19" value="" style="shape=curlyBracket;whiteSpace=wrap;html=1;rounded=1;labelPosition=left;verticalLabelPosition=middle;align=right;verticalAlign=middle;" vertex="1" parent="1">
          <mxGeometry x="60" y="310" width="20" height="160" as="geometry" />
        </mxCell>
        <mxCell id="ARMuDOWkX1jHD8Vj0ymX-20" value="" style="shape=curlyBracket;whiteSpace=wrap;html=1;rounded=1;flipH=1;labelPosition=right;verticalLabelPosition=middle;align=left;verticalAlign=middle;" vertex="1" parent="1">
          <mxGeometry x="440" y="310" width="20" height="160" as="geometry" />
        </mxCell>
        <mxCell id="ARMuDOWkX1jHD8Vj0ymX-21" value="" style="shape=curlyBracket;whiteSpace=wrap;html=1;rounded=1;labelPosition=left;verticalLabelPosition=middle;align=right;verticalAlign=middle;size=0.5;" vertex="1" parent="1">
          <mxGeometry x="220" y="270" width="20" height="210" as="geometry" />
        </mxCell>
        <mxCell id="ARMuDOWkX1jHD8Vj0ymX-23" value="" style="endArrow=none;html=1;rounded=1;exitX=0.08;exitY=0.5;exitDx=0;exitDy=0;exitPerimeter=0;arcSize=20;jumpStyle=arc;" edge="1" parent="1" source="ARMuDOWkX1jHD8Vj0ymX-21">
          <mxGeometry width="50" height="50" relative="1" as="geometry">
            <mxPoint x="200" y="270" as="sourcePoint" />
            <mxPoint x="190" y="270" as="targetPoint" />
            <Array as="points">
              <mxPoint x="210" y="375" />
              <mxPoint x="210" y="270" />
            </Array>
          </mxGeometry>
        </mxCell>
        <mxCell id="ARMuDOWkX1jHD8Vj0ymX-24" value="" style="endArrow=none;dashed=1;html=1;rounded=0;exitX=1;exitY=0.5;exitDx=0;exitDy=0;entryX=0;entryY=0.5;entryDx=0;entryDy=0;opacity=50;" edge="1" parent="1" source="ARMuDOWkX1jHD8Vj0ymX-1" target="ARMuDOWkX1jHD8Vj0ymX-3">
          <mxGeometry width="50" height="50" relative="1" as="geometry">
            <mxPoint x="140" y="330" as="sourcePoint" />
            <mxPoint x="190" y="380" as="targetPoint" />
          </mxGeometry>
        </mxCell>
        <mxCell id="ARMuDOWkX1jHD8Vj0ymX-25" value="" style="endArrow=none;dashed=1;html=1;rounded=0;exitX=1;exitY=0.5;exitDx=0;exitDy=0;entryX=0;entryY=0.5;entryDx=0;entryDy=0;opacity=50;" edge="1" parent="1" source="ARMuDOWkX1jHD8Vj0ymX-1" target="ARMuDOWkX1jHD8Vj0ymX-5">
          <mxGeometry width="50" height="50" relative="1" as="geometry">
            <mxPoint x="130" y="340" as="sourcePoint" />
            <mxPoint x="200" y="390" as="targetPoint" />
          </mxGeometry>
        </mxCell>
        <mxCell id="ARMuDOWkX1jHD8Vj0ymX-26" value="" style="endArrow=none;dashed=1;html=1;rounded=0;entryX=0;entryY=0.5;entryDx=0;entryDy=0;opacity=50;" edge="1" parent="1" target="ARMuDOWkX1jHD8Vj0ymX-10">
          <mxGeometry width="50" height="50" relative="1" as="geometry">
            <mxPoint x="120" y="330" as="sourcePoint" />
            <mxPoint x="260" y="310" as="targetPoint" />
          </mxGeometry>
        </mxCell>
        <mxCell id="ARMuDOWkX1jHD8Vj0ymX-27" value="" style="endArrow=none;dashed=1;html=1;rounded=0;entryX=0;entryY=0.5;entryDx=0;entryDy=0;opacity=50;" edge="1" parent="1" target="ARMuDOWkX1jHD8Vj0ymX-9">
          <mxGeometry width="50" height="50" relative="1" as="geometry">
            <mxPoint x="120" y="330" as="sourcePoint" />
            <mxPoint x="270" y="320" as="targetPoint" />
          </mxGeometry>
        </mxCell>
        <mxCell id="ARMuDOWkX1jHD8Vj0ymX-28" value="" style="endArrow=none;dashed=1;html=1;rounded=0;entryX=0;entryY=0.5;entryDx=0;entryDy=0;exitX=1;exitY=0.5;exitDx=0;exitDy=0;opacity=50;" edge="1" parent="1" source="ARMuDOWkX1jHD8Vj0ymX-7" target="ARMuDOWkX1jHD8Vj0ymX-3">
          <mxGeometry width="50" height="50" relative="1" as="geometry">
            <mxPoint x="130" y="410" as="sourcePoint" />
            <mxPoint x="280" y="330" as="targetPoint" />
          </mxGeometry>
        </mxCell>
        <mxCell id="ARMuDOWkX1jHD8Vj0ymX-30" value="" style="endArrow=none;dashed=1;html=1;rounded=0;entryX=-0.033;entryY=0.505;entryDx=0;entryDy=0;entryPerimeter=0;exitX=1;exitY=0.5;exitDx=0;exitDy=0;opacity=50;" edge="1" parent="1" source="ARMuDOWkX1jHD8Vj0ymX-7" target="ARMuDOWkX1jHD8Vj0ymX-10">
          <mxGeometry width="50" height="50" relative="1" as="geometry">
            <mxPoint x="130" y="390" as="sourcePoint" />
            <mxPoint x="230" y="350" as="targetPoint" />
          </mxGeometry>
        </mxCell>
        <mxCell id="ARMuDOWkX1jHD8Vj0ymX-31" value="" style="endArrow=none;dashed=1;html=1;rounded=0;entryX=0;entryY=0.5;entryDx=0;entryDy=0;opacity=50;" edge="1" parent="1" target="ARMuDOWkX1jHD8Vj0ymX-9">
          <mxGeometry width="50" height="50" relative="1" as="geometry">
            <mxPoint x="120" y="380" as="sourcePoint" />
            <mxPoint x="230" y="350" as="targetPoint" />
          </mxGeometry>
        </mxCell>
        <mxCell id="ARMuDOWkX1jHD8Vj0ymX-32" value="" style="endArrow=none;dashed=1;html=1;rounded=0;exitX=1;exitY=0.5;exitDx=0;exitDy=0;entryX=0;entryY=0.5;entryDx=0;entryDy=0;opacity=50;" edge="1" parent="1" source="ARMuDOWkX1jHD8Vj0ymX-7" target="ARMuDOWkX1jHD8Vj0ymX-5">
          <mxGeometry width="50" height="50" relative="1" as="geometry">
            <mxPoint x="180" y="420" as="sourcePoint" />
            <mxPoint x="230" y="370" as="targetPoint" />
          </mxGeometry>
        </mxCell>
        <mxCell id="ARMuDOWkX1jHD8Vj0ymX-33" value="" style="endArrow=none;dashed=1;html=1;rounded=0;entryX=0;entryY=0.5;entryDx=0;entryDy=0;exitX=1;exitY=0.5;exitDx=0;exitDy=0;opacity=50;" edge="1" parent="1" target="ARMuDOWkX1jHD8Vj0ymX-3">
          <mxGeometry width="50" height="50" relative="1" as="geometry">
            <mxPoint x="120" y="450" as="sourcePoint" />
            <mxPoint x="240" y="360" as="targetPoint" />
          </mxGeometry>
        </mxCell>
        <mxCell id="ARMuDOWkX1jHD8Vj0ymX-34" value="" style="endArrow=none;dashed=1;html=1;rounded=0;exitX=1;exitY=0.5;exitDx=0;exitDy=0;entryX=0;entryY=0.5;entryDx=0;entryDy=0;opacity=50;" edge="1" parent="1" target="ARMuDOWkX1jHD8Vj0ymX-9">
          <mxGeometry width="50" height="50" relative="1" as="geometry">
            <mxPoint x="120" y="450" as="sourcePoint" />
            <mxPoint x="190" y="450" as="targetPoint" />
          </mxGeometry>
        </mxCell>
        <mxCell id="ARMuDOWkX1jHD8Vj0ymX-35" value="" style="endArrow=none;dashed=1;html=1;rounded=0;entryX=-0.028;entryY=0.49;entryDx=0;entryDy=0;entryPerimeter=0;opacity=50;" edge="1" parent="1" target="ARMuDOWkX1jHD8Vj0ymX-10">
          <mxGeometry width="50" height="50" relative="1" as="geometry">
            <mxPoint x="120" y="450" as="sourcePoint" />
            <mxPoint x="240" y="480" as="targetPoint" />
          </mxGeometry>
        </mxCell>
        <mxCell id="ARMuDOWkX1jHD8Vj0ymX-36" value="" style="endArrow=none;dashed=1;html=1;rounded=0;exitX=1;exitY=0.5;exitDx=0;exitDy=0;entryX=0;entryY=0.5;entryDx=0;entryDy=0;opacity=50;" edge="1" parent="1" target="ARMuDOWkX1jHD8Vj0ymX-5">
          <mxGeometry width="50" height="50" relative="1" as="geometry">
            <mxPoint x="120" y="450" as="sourcePoint" />
            <mxPoint x="240" y="530" as="targetPoint" />
          </mxGeometry>
        </mxCell>
        <mxCell id="ARMuDOWkX1jHD8Vj0ymX-37" value="" style="endArrow=none;dashed=1;html=1;rounded=0;exitX=1;exitY=0.5;exitDx=0;exitDy=0;entryX=0;entryY=0.5;entryDx=0;entryDy=0;opacity=50;" edge="1" parent="1" source="ARMuDOWkX1jHD8Vj0ymX-3" target="ARMuDOWkX1jHD8Vj0ymX-14">
          <mxGeometry width="50" height="50" relative="1" as="geometry">
            <mxPoint x="293" y="285" as="sourcePoint" />
            <mxPoint x="413" y="245" as="targetPoint" />
          </mxGeometry>
        </mxCell>
        <mxCell id="ARMuDOWkX1jHD8Vj0ymX-38" value="" style="endArrow=none;dashed=1;html=1;rounded=0;exitX=1;exitY=0.5;exitDx=0;exitDy=0;opacity=50;entryX=0;entryY=0.5;entryDx=0;entryDy=0;" edge="1" parent="1" source="ARMuDOWkX1jHD8Vj0ymX-5" target="ARMuDOWkX1jHD8Vj0ymX-14">
          <mxGeometry width="50" height="50" relative="1" as="geometry">
            <mxPoint x="293" y="285" as="sourcePoint" />
            <mxPoint x="290" y="430" as="targetPoint" />
          </mxGeometry>
        </mxCell>
        <mxCell id="ARMuDOWkX1jHD8Vj0ymX-39" value="" style="endArrow=none;dashed=1;html=1;rounded=0;entryX=0;entryY=0.5;entryDx=0;entryDy=0;opacity=50;exitX=1;exitY=0.5;exitDx=0;exitDy=0;" edge="1" parent="1" source="ARMuDOWkX1jHD8Vj0ymX-3" target="ARMuDOWkX1jHD8Vj0ymX-16">
          <mxGeometry width="50" height="50" relative="1" as="geometry">
            <mxPoint x="293" y="285" as="sourcePoint" />
            <mxPoint x="413" y="295" as="targetPoint" />
          </mxGeometry>
        </mxCell>
        <mxCell id="ARMuDOWkX1jHD8Vj0ymX-40" value="" style="endArrow=none;dashed=1;html=1;rounded=0;entryX=0;entryY=0.5;entryDx=0;entryDy=0;opacity=50;exitX=1;exitY=0.5;exitDx=0;exitDy=0;" edge="1" parent="1" source="ARMuDOWkX1jHD8Vj0ymX-3" target="ARMuDOWkX1jHD8Vj0ymX-15">
          <mxGeometry width="50" height="50" relative="1" as="geometry">
            <mxPoint x="293" y="285" as="sourcePoint" />
            <mxPoint x="413" y="365" as="targetPoint" />
          </mxGeometry>
        </mxCell>
        <mxCell id="ARMuDOWkX1jHD8Vj0ymX-41" value="" style="endArrow=none;dashed=1;html=1;rounded=0;entryX=0;entryY=0.5;entryDx=0;entryDy=0;exitX=1;exitY=0.5;exitDx=0;exitDy=0;opacity=50;" edge="1" parent="1" source="ARMuDOWkX1jHD8Vj0ymX-10" target="ARMuDOWkX1jHD8Vj0ymX-14">
          <mxGeometry width="50" height="50" relative="1" as="geometry">
            <mxPoint x="294" y="345" as="sourcePoint" />
            <mxPoint x="414" y="255" as="targetPoint" />
          </mxGeometry>
        </mxCell>
        <mxCell id="ARMuDOWkX1jHD8Vj0ymX-42" value="" style="endArrow=none;dashed=1;html=1;rounded=0;entryX=0;entryY=0.5;entryDx=0;entryDy=0;exitX=1;exitY=0.5;exitDx=0;exitDy=0;opacity=50;" edge="1" parent="1" source="ARMuDOWkX1jHD8Vj0ymX-10" target="ARMuDOWkX1jHD8Vj0ymX-16">
          <mxGeometry width="50" height="50" relative="1" as="geometry">
            <mxPoint x="294" y="345" as="sourcePoint" />
            <mxPoint x="413" y="305" as="targetPoint" />
          </mxGeometry>
        </mxCell>
        <mxCell id="ARMuDOWkX1jHD8Vj0ymX-43" value="" style="endArrow=none;dashed=1;html=1;rounded=0;entryX=0;entryY=0.5;entryDx=0;entryDy=0;opacity=50;exitX=1;exitY=0.5;exitDx=0;exitDy=0;" edge="1" parent="1" source="ARMuDOWkX1jHD8Vj0ymX-10" target="ARMuDOWkX1jHD8Vj0ymX-15">
          <mxGeometry width="50" height="50" relative="1" as="geometry">
            <mxPoint x="294" y="345" as="sourcePoint" />
            <mxPoint x="414" y="375" as="targetPoint" />
          </mxGeometry>
        </mxCell>
        <mxCell id="ARMuDOWkX1jHD8Vj0ymX-44" value="" style="endArrow=none;dashed=1;html=1;rounded=0;exitX=1;exitY=0.5;exitDx=0;exitDy=0;entryX=0;entryY=0.5;entryDx=0;entryDy=0;opacity=50;" edge="1" parent="1" source="ARMuDOWkX1jHD8Vj0ymX-12" target="ARMuDOWkX1jHD8Vj0ymX-14">
          <mxGeometry width="50" height="50" relative="1" as="geometry">
            <mxPoint x="294" y="345" as="sourcePoint" />
            <mxPoint x="414" y="425" as="targetPoint" />
          </mxGeometry>
        </mxCell>
        <mxCell id="ARMuDOWkX1jHD8Vj0ymX-45" value="" style="endArrow=none;dashed=1;html=1;rounded=0;entryX=0;entryY=0.5;entryDx=0;entryDy=0;exitX=1;exitY=0.5;exitDx=0;exitDy=0;opacity=50;" edge="1" parent="1" source="ARMuDOWkX1jHD8Vj0ymX-9" target="ARMuDOWkX1jHD8Vj0ymX-16">
          <mxGeometry width="50" height="50" relative="1" as="geometry">
            <mxPoint x="294" y="415" as="sourcePoint" />
            <mxPoint x="414" y="255" as="targetPoint" />
          </mxGeometry>
        </mxCell>
        <mxCell id="ARMuDOWkX1jHD8Vj0ymX-46" value="" style="endArrow=none;dashed=1;html=1;rounded=0;exitX=1;exitY=0.5;exitDx=0;exitDy=0;entryX=0;entryY=0.5;entryDx=0;entryDy=0;opacity=50;" edge="1" parent="1" source="ARMuDOWkX1jHD8Vj0ymX-9" target="ARMuDOWkX1jHD8Vj0ymX-14">
          <mxGeometry width="50" height="50" relative="1" as="geometry">
            <mxPoint x="294" y="415" as="sourcePoint" />
            <mxPoint x="414" y="375" as="targetPoint" />
          </mxGeometry>
        </mxCell>
        <mxCell id="ARMuDOWkX1jHD8Vj0ymX-47" value="" style="endArrow=none;dashed=1;html=1;rounded=0;entryX=0;entryY=0.5;entryDx=0;entryDy=0;opacity=50;exitX=1;exitY=0.5;exitDx=0;exitDy=0;" edge="1" parent="1" source="ARMuDOWkX1jHD8Vj0ymX-9" target="ARMuDOWkX1jHD8Vj0ymX-15">
          <mxGeometry width="50" height="50" relative="1" as="geometry">
            <mxPoint x="294" y="415" as="sourcePoint" />
            <mxPoint x="413" y="305" as="targetPoint" />
          </mxGeometry>
        </mxCell>
        <mxCell id="ARMuDOWkX1jHD8Vj0ymX-48" value="" style="endArrow=none;dashed=1;html=1;rounded=0;exitX=1;exitY=0.5;exitDx=0;exitDy=0;entryX=0;entryY=0.5;entryDx=0;entryDy=0;opacity=50;" edge="1" parent="1" source="ARMuDOWkX1jHD8Vj0ymX-5" target="ARMuDOWkX1jHD8Vj0ymX-15">
          <mxGeometry width="50" height="50" relative="1" as="geometry">
            <mxPoint x="294" y="415" as="sourcePoint" />
            <mxPoint x="414" y="425" as="targetPoint" />
          </mxGeometry>
        </mxCell>
        <mxCell id="ARMuDOWkX1jHD8Vj0ymX-49" value="" style="endArrow=none;dashed=1;html=1;rounded=0;exitX=1;exitY=0.5;exitDx=0;exitDy=0;entryX=0;entryY=0.5;entryDx=0;entryDy=0;opacity=50;" edge="1" parent="1" source="ARMuDOWkX1jHD8Vj0ymX-5" target="ARMuDOWkX1jHD8Vj0ymX-16">
          <mxGeometry width="50" height="50" relative="1" as="geometry">
            <mxPoint x="290" y="520" as="sourcePoint" />
            <mxPoint x="424" y="435" as="targetPoint" />
          </mxGeometry>
        </mxCell>
        <mxCell id="ARMuDOWkX1jHD8Vj0ymX-50" value="" style="endArrow=none;dashed=1;html=1;rounded=0;exitX=1;exitY=0.5;exitDx=0;exitDy=0;entryX=0;entryY=0.5;entryDx=0;entryDy=0;opacity=50;" edge="1" parent="1" source="ARMuDOWkX1jHD8Vj0ymX-12" target="ARMuDOWkX1jHD8Vj0ymX-15">
          <mxGeometry width="50" height="50" relative="1" as="geometry">
            <mxPoint x="290" y="470" as="sourcePoint" />
            <mxPoint x="424" y="435" as="targetPoint" />
          </mxGeometry>
        </mxCell>
        <mxCell id="ARMuDOWkX1jHD8Vj0ymX-51" value="" style="endArrow=none;dashed=1;html=1;rounded=0;exitX=1;exitY=0.5;exitDx=0;exitDy=0;entryX=0;entryY=0.5;entryDx=0;entryDy=0;opacity=50;" edge="1" parent="1" source="ARMuDOWkX1jHD8Vj0ymX-12" target="ARMuDOWkX1jHD8Vj0ymX-16">
          <mxGeometry width="50" height="50" relative="1" as="geometry">
            <mxPoint x="290" y="470" as="sourcePoint" />
            <mxPoint x="423" y="425" as="targetPoint" />
          </mxGeometry>
        </mxCell>
        <mxCell id="ARMuDOWkX1jHD8Vj0ymX-52" value="784" style="text;html=1;strokeColor=none;fillColor=none;align=center;verticalAlign=middle;whiteSpace=wrap;rounded=0;" vertex="1" parent="1">
          <mxGeometry x="30" y="382.5" width="30" height="15" as="geometry" />
        </mxCell>
        <mxCell id="ARMuDOWkX1jHD8Vj0ymX-54" value="800" style="text;html=1;strokeColor=none;fillColor=none;align=center;verticalAlign=middle;whiteSpace=wrap;rounded=0;spacingBottom=-9;" vertex="1" parent="1">
          <mxGeometry x="160" y="260" width="30" height="10" as="geometry" />
        </mxCell>
        <mxCell id="ARMuDOWkX1jHD8Vj0ymX-55" value="10" style="text;html=1;strokeColor=none;fillColor=none;align=center;verticalAlign=middle;whiteSpace=wrap;rounded=0;" vertex="1" parent="1">
          <mxGeometry x="460" y="382.5" width="30" height="15" as="geometry" />
        </mxCell>
      </root>
    </mxGraphModel>
  </diagram>
</mxfile>
